Coordinates
version=1
nRows=6
nColumns=60
inDegrees=yes

Units are S.I. units (second, meters, Newtons, ...)
If the header above contains a line with 'inDegrees', this indicates whether rotational values are in degrees (yes) or radians (no).

endheader
time	pelvis_tilt	pelvis_list	pelvis_rotation	pelvis_tx	pelvis_ty	pelvis_tz	hip_flexion_r	hip_adduction_r	hip_rotation_r	knee_angle_r_beta	knee_angle_r	ankle_angle_r	subtalar_angle_r	mtp_angle_r	hip_flexion_l	hip_adduction_l	hip_rotation_l	knee_angle_l_beta	knee_angle_l	ankle_angle_l	subtalar_angle_l	mtp_angle_l	L5_S1_Flex_Ext	L5_S1_Lat_Bending	L5_S1_axial_rotation	L4_L5_Flex_Ext	L4_L5_Lat_Bending	L4_L5_axial_rotation	L3_L4_Flex_Ext	L3_L4_Lat_Bending	L3_L4_axial_rotation	L2_L3_Flex_Ext	L2_L3_Lat_Bending	L2_L3_axial_rotation	L1_L2_Flex_Ext	L1_L2_Lat_Bending	L1_L2_axial_rotation	L1_T12_Flex_Ext	L1_T12_Lat_Bending	L1_T12_axial_rotation	Abs_r3	Abs_r2	Abs_r1	Abs_t1	Abs_t2	arm_flex_r	arm_add_r	arm_rot_r	elbow_flex_r	pro_sup_r	wrist_flex_r	wrist_dev_r	arm_flex_l	arm_add_l	arm_rot_l	elbow_flex_l	pro_sup_l	wrist_flex_l	wrist_dev_l
      1.51000000	      0.54783479	    -16.62495578	     94.85854128	      0.40018466	      0.83919255	      0.42318632	     52.61696463	     -7.57952020	     -0.37715319	      0.75713563	    -43.38067595	      9.92081087	      0.00000000	      0.00000000	     52.99294552	     -3.69351004	      1.48915570	      0.71005926	    -40.68339852	      8.34470361	      0.00000000	      0.00000000	    -10.47945938	      0.25624881	     -0.16440070	    -19.46140402	      0.34081092	     -0.17467575	    -17.21670382	      0.62304336	     -0.17467575	    -11.97697413	      0.62304336	     -0.14385062	     -9.73122598	      0.52254258	     -0.13357557	     -5.98796309	      0.39692941	     -0.12330053	    -74.85373041	      2.89873782	     -0.91434739	      0.00000000	      0.00000000	     86.97205473	    -15.16310407	     14.01235936	     29.50942312	     72.68930200	     28.70948950	      3.38047210	     92.72926532	    -13.54238869	     36.45058830	     24.77964797	     59.89060152	     28.97670335	     -1.97769713
      1.52000000	      0.55649562	    -16.48702449	     94.88200133	      0.40037410	      0.83867821	      0.42264337	     52.61738166	     -7.62820738	     -0.54318178	      0.76297769	    -43.71540133	     10.05036986	      0.00000000	      0.00000000	     53.02331487	     -3.73475005	      1.43614682	      0.71616511	    -41.03323836	      8.45458116	      0.00000000	      0.00000000	    -10.48975306	      0.26089857	     -0.15910589	    -19.48052041	      0.34699510	     -0.16905001	    -17.23361530	      0.63434879	     -0.16905001	    -11.98873877	      0.63434879	     -0.13921766	     -9.74078469	      0.53202437	     -0.12927354	     -5.99384490	      0.40413189	     -0.11932942	    -74.92725713	      2.95133686	     -0.88489925	      0.00000000	      0.00000000	     86.71050836	    -15.27283916	     14.02599704	     29.93562661	     72.66083823	     28.62781510	      3.39609168	     92.50135760	    -13.70186284	     36.37137161	     25.21697525	     59.88451695	     28.99396437	     -1.98663738
      1.53000000	      0.58070555	    -16.38719686	     94.90162057	      0.40058498	      0.83813234	      0.42208194	     52.65750899	     -7.63869628	     -0.63891296	      0.76896062	    -44.05819795	     10.18422704	      0.00000000	      0.00000000	     53.08948960	     -3.79034957	      1.40311350	      0.72217452	    -41.37755229	      8.57133689	      0.00000000	      0.00000000	    -10.48738767	      0.26541433	     -0.14861262	    -19.47612764	      0.35300106	     -0.15790091	    -17.22972920	      0.64532841	     -0.15790091	    -11.98603537	      0.64532841	     -0.13003605	     -9.73858819	      0.54123291	     -0.12074776	     -5.99249331	      0.41112680	     -0.11145947	    -74.91036139	      3.00242002	     -0.82653883	      0.00000000	      0.00000000	     86.36112189	    -15.39874847	     14.01361563	     30.37202925	     72.55674801	     28.52758499	      3.43286872	     92.18646985	    -13.79199521	     36.18525001	     25.61451764	     59.79948727	     28.96824087	     -1.96087410
      1.54000000	      0.60114896	    -16.31938117	     94.93875327	      0.40076368	      0.83764899	      0.42150132	     52.69000972	     -7.66656530	     -0.75971899	      0.77367243	    -44.32816509	     10.34042240	      0.00000000	      0.00000000	     53.16466332	     -3.82647823	      1.36714495	      0.72734266	    -41.67366476	      8.72086715	      0.00000000	      0.00000000	    -10.47863343	      0.26919631	     -0.14156017	    -19.45987015	      0.35803109	     -0.15040768	    -17.21534686	      0.65452390	     -0.15040768	    -11.97603015	      0.65452390	     -0.12386515	     -9.73045900	      0.54894511	     -0.11501764	     -5.98749114	      0.41698508	     -0.10617013	    -74.84783074	      3.04520246	     -0.78731520	      0.00000000	      0.00000000	     85.92863634	    -15.56986358	     14.05739561	     30.91287928	     72.57656951	     28.34006463	      3.49254242	     91.81715263	    -13.88817324	     35.97244778	     26.08571946	     59.81662704	     28.83688450	     -1.88460656
      1.55000000	      0.59812413	    -16.24078280	     94.96863525	      0.40094540	      0.83745677	      0.42088913	     52.62127945	     -7.66766517	     -0.74564998	      0.77493530	    -44.40052212	     10.34057509	      0.00000000	      0.00000000	     53.11126207	     -3.82712017	      1.38365799	      0.72850954	    -41.74052173	      8.71813582	      0.00000000	      0.00000000	    -10.47231476	      0.27000564	     -0.14077364	    -19.44813574	      0.35910750	     -0.14957200	    -17.20496592	      0.65649172	     -0.14957200	    -11.96880854	      0.65649172	     -0.12317694	     -9.72459149	      0.55059551	     -0.11437859	     -5.98388065	      0.41823874	     -0.10558023	    -74.80269709	      3.05435782	     -0.78294078	      0.00000000	      0.00000000	     85.51342045	    -15.62612657	     13.90805055	     31.29975114	     72.15331353	     28.32234521	      3.51464376	     91.50775162	    -13.85736371	     35.65622722	     26.23274799	     59.50212459	     28.83430583	     -1.87517714
      1.56000000	      0.57857618	    -16.06383652	     94.98954818	      0.40109368	      0.83724935	      0.42025356	     52.59758246	     -7.70404080	     -0.81115255	      0.78162748	    -44.78395567	     10.45404064	      0.00000000	      0.00000000	     53.07798734	     -3.81816041	      1.39117433	      0.73467879	    -42.09399387	      8.78061726	      0.00000000	      0.00000000	    -10.47517358	      0.27367674	     -0.13092121	    -19.45344486	      0.36399006	     -0.13910378	    -17.20966268	      0.66541762	     -0.13910378	    -11.97207589	      0.66541762	     -0.11455606	     -9.72724619	      0.55808160	     -0.10637348	     -5.98551419	      0.42392526	     -0.09819091	    -74.82311739	      3.09588597	     -0.72814448	      0.00000000	      0.00000000	     85.19254165	    -15.72863760	     13.86984539	     31.51535190	     72.12083279	     28.20885178	      3.56720839	     91.14226195	    -13.83463954	     35.50977018	     26.52698707	     59.45414724	     28.73145940	     -1.81627555
